HIERARCHY
ROOT Hips
{
  OFFSET 1.44925e-005 102.336 -0.101585
  CHANNELS 6 Xposition Yposition Zposition Zrotation Xrotation Yrotation
  JOINT LeftUpLeg
  {
    OFFSET 8.9458 -8.66707 0.101652
    CHANNELS 3 Zrotation Xrotation Yrotation
    JOINT LeftLeg
    {
      OFFSET 0 -44.4227 1.3727
      CHANNELS 3 Zrotation Xrotation Yrotation
      JOINT LeftFoot
      {
        OFFSET -0.253549 -42.0924 -1.46059
        CHANNELS 3 Zrotation Xrotation Yrotation
        JOINT LeftToes
        {
          OFFSET -0.04 -4.41509 8.4991
          CHANNELS 3 Zrotation Xrotation Yrotation
          End Site
          {
            OFFSET 0.08 -0.047448 9.77979
          }
        }
      }
    }
  }
  JOINT Spine
  {
    OFFSET 0 11.8905 0
    CHANNELS 3 Zrotation Xrotation Yrotation
    JOINT Spine1
    {
      OFFSET 0 25.6574 0.127663
      CHANNELS 3 Zrotation Xrotation Yrotation
      JOINT RightShoulder
      {
        OFFSET -8.99 -0.362252 -0.22
        CHANNELS 3 Zrotation Xrotation Yrotation
        JOINT RightArm
        {
          OFFSET -10.2827 -0.00338 0.322123
          CHANNELS 3 Zrotation Xrotation Yrotation
          JOINT RightForeArm
          {
            OFFSET -26.364 0.099144 -1.42434
            CHANNELS 3 Zrotation Xrotation Yrotation
            JOINT RightHand
            {
              OFFSET -22.0324 0.085362 1.02216
              CHANNELS 3 Zrotation Xrotation Yrotation
              End Site
              {
                OFFSET -13.3284 -0.6 1.50291
              }
            }
          }
        }
      }
      JOINT LeftShoulder1
      {
        OFFSET 8.99 -0.362252 -0.22
        CHANNELS 3 Zrotation Xrotation Yrotation
        JOINT LeftArm
        {
          OFFSET 10.2827 -0.00337999 0.322123
          CHANNELS 3 Zrotation Xrotation Yrotation
          JOINT LeftForeArm
          {
            OFFSET 26.2597 0.099144 -1.42434
            CHANNELS 3 Zrotation Xrotation Yrotation
            JOINT LeftHand
            {
              OFFSET 22.0902 0.085362 1.02216
              CHANNELS 3 Zrotation Xrotation Yrotation
              End Site
              {
                OFFSET 13.419 -0.6 1.50291
              }
            }
          }
        }
      }
      JOINT Head
      {
        OFFSET 0 8.73416 0.011341
        CHANNELS 3 Zrotation Xrotation Yrotation
        End Site
        {
          OFFSET -0.29 12.7742 2.51395
        }
      }
    }
  }
  JOINT RightUpLeg
  {
    OFFSET -8.9458 -8.66707 0.101652
    CHANNELS 3 Zrotation Xrotation Yrotation
    JOINT RightLeg
    {
      OFFSET 0 -44.4227 1.3727
      CHANNELS 3 Zrotation Xrotation Yrotation
      JOINT RightFoot
      {
        OFFSET 0.253549 -42.0924 -1.46059
        CHANNELS 3 Zrotation Xrotation Yrotation
        JOINT RightToes
        {
          OFFSET 0.04 -4.41509 8.4991
          CHANNELS 3 Zrotation Xrotation Yrotation
          End Site
          {
            OFFSET -0.08 -0.137448 9.77979
          }
        }
      }
    }
  }
}
MOTION
Frames:	19
Frame Time:	0.0333333
44.3096 95.6223 3.5782 6.98407 -1.47902 -91.4454 -4.58979 -36.4848 1.33616 1.09061 36.7779 16.3049 -3.32811 -12.8848 -0.0913871 -1.37632e-009 8.75206e-006 -1.48048e-008 -0.646807 45.5529 1.77427 -4.37384 -0.972271 2.62249 29.3182 1.62801 0.481118 55.6678 -21.5112 51.5077 -8.53201 25.0748 78.3874 -18.1462 8.98813 0.630695 -43.2781 3.45239 -3.42116 -28.1971 -19.0045 -22.8255 24.7147 31.1056 -75.0169 5.82328 9.61819 -0.917488 -0.0807701 -47.0984 -8.64756 -3.94934 -37.9018 -1.71354 -2.59469 73.2192 -10.4124 12.0778 -12.4739 0.313001 0.0462048 0.000530889 0.662642 
43.3202 95.6519 3.62598 6.84653 -1.29109 -91.0201 -5.14805 -35.9069 -0.272303 1.12999 37.2555 17.1647 -2.85357 -13.4852 -0.0811341 -1.37632e-009 8.75206e-006 -1.48048e-008 0.0227671 45.8212 1.7504 -4.76319 -1.11089 2.97472 28.4642 1.58135 0.442616 56.9924 -22.8227 54.6751 -8.99157 24.9394 79.7781 -18.5585 8.95611 0.696895 -43.5683 3.47487 -3.41839 -27.5908 -19.6638 -19.7254 24.1548 30.6607 -75.4824 5.82328 9.61819 -0.917488 -0.333546 -47.132 -9.25579 -4.06253 -40.7813 -2.34987 -2.34867 71.4173 -11.2894 11.9753 -13.396 0.401376 0.0462048 0.000530889 0.662642 
42.3662 95.8365 3.68501 6.84842 -0.765094 -90.7274 -5.23263 -35.2999 -1.71168 1.16677 37.4169 18.0947 -2.68268 -14.0641 -0.0825438 -1.37632e-009 8.75206e-006 -1.48048e-008 1.28638 46.064 1.5303 -4.95455 -1.1741 3.22373 27.686 1.54164 0.413779 58.4738 -23.9386 57.6211 -9.08384 24.7343 81.1044 -18.9715 8.92869 0.730043 -43.7084 3.48356 -3.41669 -27.19 -20.427 -16.7003 23.7846 30.2916 -75.9792 5.82328 9.61819 -0.917488 -0.488761 -47.2192 -9.74453 -3.97952 -43.1991 -3.32531 -2.07441 66.7517 -13.5329 11.0435 -13.3574 0.349934 0.0462048 0.000530889 0.662642 
41.4389 95.968 3.71393 6.89731 -0.218148 -90.462 -5.12886 -34.8612 -2.8423 1.20197 37.7821 18.8992 -2.6378 -14.7664 -0.0921358 -1.37632e-009 8.75206e-006 -1.48048e-008 2.60521 46.2704 1.27678 -5.06751 -1.34126 3.35891 27.1539 1.51446 0.392922 59.9035 -24.897 60.2869 -9.02237 24.498 82.4682 -19.1513 8.91285 0.768648 -43.9266 3.49865 -3.41857 -26.5582 -21.2111 -13.6691 23.7005 30.0282 -76.5069 5.82328 9.61819 -0.917488 -0.471904 -47.2504 -10.1044 -3.86904 -44.8533 -4.1894 -1.73947 59.887 -14.8955 10.4399 -13.5561 0.336622 0.0462048 0.000530889 0.662642 
40.4619 95.9261 3.6561 6.90535 0.0183277 -90.2704 -5.25369 -34.5646 -3.77539 1.24066 38.5391 19.5985 -2.67235 -15.6547 -0.11027 -1.37632e-009 8.75206e-006 -1.48048e-008 3.26407 46.4399 1.21483 -5.18172 -1.60972 3.45755 26.6901 1.48424 0.354144 61.3552 -25.6675 62.5272 -9.21696 24.2543 84.0889 -19.1125 8.90367 0.840156 -44.4322 3.54222 -3.42832 -25.3894 -21.908 -10.4811 23.6169 29.7645 -77.0424 5.82328 9.61819 -0.917488 -0.453614 -47.2494 -10.4254 -3.68119 -45.6471 -4.13749 -1.38877 51.5777 -15.4113 10.5921 -14.112 0.393568 0.0462048 0.000530889 0.662642 
39.4021 95.7991 3.52445 6.90697 0.028998 -90.1241 -5.5307 -34.3024 -4.76223 1.28827 39.4906 20.3874 -2.97518 -16.716 -0.1539 -1.37632e-009 8.75206e-006 -1.48048e-008 3.63099 46.5631 1.25766 -5.23193 -1.79 3.52419 26.1994 1.44224 0.280936 62.7685 -26.2527 64.2838 -9.62002 23.9811 85.9379 -19.0539 8.90245 0.868406 -44.9715 3.58822 -3.4376 -24.2274 -22.4551 -7.29146 23.3823 29.4661 -77.5376 5.82328 9.61819 -0.917488 -0.615492 -47.3944 -10.8453 -3.27261 -45.7132 -3.33529 -1.19111 42.3034 -16.5996 10.4805 -14.1566 0.3913 0.0462048 0.000530889 0.662642 
38.2403 95.5595 3.3264 6.91341 0.10208 -89.731 -6.16907 -34.1111 -6.22733 1.35184 40.7701 21.3536 -3.51685 -17.9806 -0.22995 -1.37632e-009 8.75206e-006 -1.48048e-008 4.05646 46.5841 1.15551 -5.32788 -1.81376 3.47346 25.8903 1.40234 0.191812 63.8155 -26.8114 65.6069 -9.92891 23.6805 87.7755 -18.9787 8.92391 0.757925 -45.1333 3.58784 -3.4129 -23.8225 -22.8423 -4.45145 23.0732 29.203 -77.9004 5.82328 9.61819 -0.917488 -0.926106 -47.6875 -11.4382 -3.34483 -45.1167 -3.4037 -1.15095 32.9275 -18.1592 10.1238 -13.9714 0.354569 0.0462048 0.000530889 0.662642 
36.9015 95.1069 3.02051 6.77022 -0.44248 -88.8194 -7.4642 -33.8675 -8.2221 1.42394 42.5997 22.1899 -4.08755 -19.4876 -0.329246 -1.37632e-009 8.75206e-006 -1.48048e-008 4.34751 46.5539 0.837275 -5.45652 -1.71548 3.25653 25.899 1.37809 0.115279 64.316 -27.551 66.4602 -10.0369 23.3858 89.4441 -18.6772 8.97254 0.548349 -45.028 3.55179 -3.35896 -23.8901 -22.9375 -2.11851 22.682 29.0309 -77.9891 5.82328 9.61819 -0.917488 -1.2177 -47.7859 -12.1666 -4.46948 -43.7738 -4.66347 -0.698526 25.1452 -18.9435 10.4881 -14.6658 0.437127 0.0462048 0.000530889 0.662642 
35.4106 94.4943 2.57653 6.41226 -1.03242 -87.4297 -8.9957 -33.4308 -10.2015 1.48931 44.7993 22.5123 -4.74952 -21.1613 -0.462191 -1.37632e-009 8.75206e-006 -1.48048e-008 4.44038 46.5111 0.536486 -5.28766 -1.56521 2.93281 26.0547 1.36387 0.0543064 64.4116 -28.5384 66.6759 -9.9321 23.1129 90.9493 -18.2246 9.02054 0.387247 -45.13 3.5405 -3.32229 -23.5149 -22.5205 -0.271432 22.2178 28.9553 -77.7857 5.82328 9.61819 -0.917488 -1.38629 -47.4465 -12.9332 -5.90926 -42.1476 -4.49932 0.3088 20.8904 -20.1053 10.918 -15.5196 0.537895 0.0462048 0.000530889 0.662642 
33.8801 93.8784 2.02715 6.10777 -1.50835 -85.958 -10.123 -33.0008 -11.7649 1.5441 46.9668 22.3885 -5.65347 -22.8256 -0.648434 -1.37632e-009 8.75206e-006 -1.48048e-008 4.65974 46.4169 0.385236 -4.80506 -1.45877 2.64539 26.1681 1.35012 -0.00022276 64.2947 -29.6734 66.2391 -9.622 22.8676 92.3377 -18.0418 9.04023 0.31717 -45.5146 3.57124 -3.32535 -22.6519 -21.6629 1.02092 21.9501 28.9638 -77.5361 5.82328 9.61819 -0.917488 -1.49093 -46.9707 -13.6457 -6.7178 -41.1357 -4.50653 0.454102 20.2244 -20.3547 9.47776 -13.6731 0.30551 0.0462048 0.000530889 0.662642 
32.3566 93.3815 1.46718 6.15344 -1.61216 -84.7943 -10.6103 -32.8261 -12.9523 1.5957 48.8162 22.2691 -6.64442 -24.3319 -0.867609 -1.37632e-009 8.75206e-006 -1.48048e-008 5.34008 46.2791 0.225232 -4.50191 -1.47816 2.53741 26.2803 1.34116 -0.0394865 64.0403 -30.725 65.5088 -9.33984 22.6719 93.4975 -18.2361 9.04349 0.230358 -45.8105 3.60207 -3.34147 -22.1834 -20.8477 1.6704 22.0475 29.0164 -77.4884 5.82328 9.61819 -0.917488 -1.65696 -46.8633 -14.1583 -7.09508 -41.1722 -5.02711 0.446561 21.2845 -20.7145 6.59202 -7.56203 -0.169385 0.0462048 0.000530889 0.662642 
30.8303 93.0435 0.963833 6.4899 -1.34352 -84.2223 -10.448 -32.815 -13.7286 1.64745 50.2672 22.3556 -7.56096 -25.6856 -1.09389 -1.37632e-009 8.75206e-006 -1.48048e-008 6.27278 46.2174 0.000849678 -4.58497 -1.60775 2.63231 26.4932 1.34689 -0.0437513 63.6676 -31.3269 64.9407 -9.3124 22.583 94.0245 -18.43 9.05483 0.0918943 -45.8662 3.60458 -3.33502 -22.5424 -20.4887 1.78757 22.186 29.0284 -77.5774 5.82328 9.61819 -0.917488 -1.83692 -47.1834 -14.2038 -7.4486 -41.9589 -6.50091 0.791612 22.7078 -20.6005 4.75123 -0.266824 -0.439444 0.0462048 0.000530889 0.662642 
29.3005 92.8578 0.476977 6.87965 -0.89297 -84.1809 -9.71625 -32.6899 -13.9382 1.68719 51.2794 22.4183 -8.52557 -26.9296 -1.34468 -1.37632e-009 8.75206e-006 -1.48048e-008 6.8148 46.2925 -0.112045 -4.59114 -1.78135 2.77291 26.7679 1.36646 -0.0122361 63.1611 -31.1408 64.5604 -9.34633 22.6703 93.5268 -18.4482 9.06024 0.0506379 -45.9096 3.60272 -3.31643 -23.1948 -20.5154 1.57144 22.0303 28.9358 -77.6751 5.82328 9.61819 -0.917488 -1.74572 -47.5826 -13.5842 -7.44246 -42.8547 -8.8705 0.872632 24.5456 -18.8198 4.21703 3.2569 -0.50334 0.0462048 0.000530889 0.662642 
27.7936 92.8467 -0.062312 7.31025 -0.528241 -84.3089 -8.78364 -32.3122 -13.787 1.6991 51.6212 22.377 -9.49598 -27.8915 -1.59595 -1.37632e-009 8.75206e-006 -1.48048e-008 6.65879 46.4208 -0.0425627 -4.14577 -1.93328 2.74294 27.0037 1.38848 0.0301669 62.5086 -30.2027 63.9123 -9.17222 22.9019 92.1793 -18.5836 9.02747 0.221615 -45.9911 3.59833 -3.30882 -23.6445 -20.533 0.927539 21.7803 28.776 -77.8642 5.82328 9.61819 -0.917488 -1.22234 -47.83 -12.5111 -6.72848 -43.6145 -10.8383 0.161556 26.7877 -16.0186 3.21185 2.38042 -0.390733 0.0462048 0.000530889 0.662642 
26.311 93.0272 -0.644391 7.89669 -0.445898 -84.2774 -8.15831 -31.6858 -13.7608 1.68321 51.1217 22.4553 -10.1792 -28.4212 -1.77095 -1.37632e-009 8.75206e-006 -1.48048e-008 6.17036 46.457 -0.021516 -3.55719 -2.07584 2.46494 27.1862 1.40453 0.0595525 61.7722 -28.9546 62.5568 -8.98066 23.1508 90.6608 -18.9679 8.97009 0.466917 -45.8326 3.58266 -3.3012 -24.062 -20.235 -0.493702 21.7445 28.6245 -78.2177 5.82328 9.61819 -0.917488 -0.533111 -47.9347 -11.5334 -5.86602 -44.2157 -11.2211 -0.572216 28.5999 -14.5965 1.42835 0.456854 -0.219039 0.0462048 0.000530889 0.662642 
24.7993 93.324 -1.20974 8.58757 -0.565955 -84.0739 -7.83304 -30.8779 -13.9315 1.65383 50.1008 22.5994 -10.7023 -28.7458 -1.90227 -1.37632e-009 8.75206e-006 -1.48048e-008 5.91453 46.3896 -0.25759 -3.20154 -2.25333 2.05053 27.3682 1.4165 0.0764941 60.9331 -27.7735 60.4025 -8.98541 23.3687 89.3267 -19.2931 8.93641 0.572621 -45.3302 3.53295 -3.27876 -24.707 -19.658 -2.77537 21.8023 28.4784 -78.6364 5.82328 9.61819 -0.917488 -0.0755924 -47.8789 -10.9557 -5.38785 -44.6589 -10.843 -0.897414 29.817 -14.608 0.198295 -0.557438 -0.13651 0.0462048 0.000530889 0.662642 
23.2175 93.5963 -1.73992 9.19695 -0.615895 -83.8852 -7.30098 -30.0055 -13.8171 1.61171 49.1523 22.3851 -11.4134 -29.168 -2.08397 -1.37632e-009 8.75206e-006 -1.48048e-008 5.99376 46.2696 -0.647931 -2.94019 -2.49588 1.64778 27.5608 1.43039 0.0978393 59.7791 -26.6002 57.6122 -8.81082 23.6162 87.7583 -19.3584 8.93334 0.570011 -44.7102 3.47568 -3.25793 -25.5113 -19.17 -5.55447 21.7949 28.2746 -79.1498 5.82328 9.61819 -0.917488 0.0959418 -47.592 -10.5287 -4.90068 -44.9299 -10.0461 -1.00942 30.9842 -15.2137 0.0375848 -1.54363 -0.133054 0.0462048 0.000530889 0.662642 
21.5917 93.7934 -2.24386 9.63465 -0.457512 -83.8706 -6.29113 -29.1196 -13.0642 1.56036 48.4594 21.7733 -11.9794 -29.6125 -2.24433 -1.37632e-009 8.75206e-006 -1.48048e-008 6.17927 46.1319 -1.012 -2.48902 -2.77708 1.28709 27.7563 1.44815 0.130037 58.1589 -25.147 54.4382 -8.12189 23.9315 85.4058 -19.2972 8.92339 0.652647 -44.1261 3.43114 -3.25579 -26.4808 -19.2173 -8.44828 21.9991 27.9932 -80.0247 5.82328 9.61819 -0.917488 0.146291 -47.145 -9.89965 -3.91428 -45.0025 -8.698 -1.04526 32.2857 -16.0463 0.0734046 -3.24399 -0.146042 0.0462048 0.000530889 0.662642 
19.9669 93.9889 -2.70038 9.90419 -0.190268 -84.0459 -5.06453 -28.1496 -11.8738 1.51644 47.8575 21.2283 -12.0132 -29.8502 -2.27762 -1.37632e-009 8.75206e-006 -1.48048e-008 6.37239 46.0356 -1.37025 -1.81842 -3.07867 0.885791 28.009 1.46796 0.161882 56.2166 -23.3237 51.1817 -7.40366 24.3072 82.2414 -19.192 8.89139 0.890136 -43.5679 3.39382 -3.26372 -27.8671 -19.9714 -11.3727 22.62 27.6928 -81.2255 5.82328 9.61819 -0.917488 -0.0663236 -46.6929 -9.15561 -2.77249 -44.8017 -7.75188 -1.07014 33.392 -16.3837 -0.173128 -5.01983 -0.150441 0.0462048 0.000530889 0.662642 
